<svg xmlns="http://www.w3.org/2000/svg" width="256" height="256"><path fill="#1976D2" fill-opacity=".016" fill-rule="evenodd" d="M0 128.004v128.004l128.25-.254 128.25-.254.254-127.75L257.008 0H0zm.485.496c0 70.4.119 99.053.265 63.672s.146-92.98 0-128S.485 58.1.485 128.5"/><path fill="#1976D2" fill-opacity=".095" fill-rule="evenodd" d="M108 1.471c-13.248 2.237-23.215 5.454-35.54 11.47C35.684 30.89 10.967 62.627 2.321 103c-2.542 11.869-2.542 38.131 0 50 6.837 31.923 24.053 58.939 49.655 77.922 9.975 7.396 29.471 17.169 40.024 20.063 24.108 6.613 47.892 6.613 72 0 10.553-2.894 30.049-12.667 40.024-20.063 25.33-18.781 43.161-46.621 49.4-77.13.867-4.239 1.576-8.825 1.576-10.191s.45-2.761 1-3.101c.584-.361 1-6.03 1-13.618 0-7.15-.389-12.759-.865-12.465s-1.166-2.028-1.535-5.159c-3.706-31.538-23.158-63.851-50.754-84.312C194.028 17.666 174.484 7.89 164 5.015c-17.963-4.927-39.671-6.301-56-3.544m54.993 38.85c-1.38.72-18.419 12.89-37.867 27.044S89.657 92.966 89.521 92.801C89.385 92.635 86.9 85.3 84 76.5s-5.895-17.23-6.654-18.733c-2.654-5.257-10.476-7.303-16.335-4.273C56.945 55.597 55 58.802 55 63.398c0 2.921 22.714 76.098 27.716 89.289.335.883-4.306 1.268-18.116 1.5l-18.566.313-3.126 3.128c-6.196 6.201-4.322 16.63 3.582 19.932 2.822 1.179 11.418 1.44 47.478 1.44 35.182 0 44.032.258 44.032 1.284 0 .706-2.501 8.694-5.559 17.75-6.511 19.287-6.749 23.515-1.584 28.13 4.08 3.645 8.958 4.492 13.487 2.343 1.946-.924 4.165-2.653 4.93-3.843s7.811-21.964 15.658-46.164 14.425-44.165 14.618-44.367 7.672 4.928 16.621 11.398c18.511 13.384 21.571 14.514 27.829 10.275 4.932-3.342 6.9-9.147 4.895-14.441-1.304-3.443-5.685-6.921-40.135-31.865-21.269-15.4-38.546-28.436-38.393-28.969.153-.532 6.246-5.324 13.54-10.647s13.841-10.513 14.549-11.532c7.027-10.105-4.623-23.689-15.463-18.031m-50.19 66.505c-8.083 5.871-14.721 11.063-14.75 11.539s2.445 8.688 5.498 18.25L109.102 154h37.796l5.551-17.385c3.053-9.562 5.53-17.774 5.503-18.25-.041-.75-28.245-21.572-29.853-22.039-.329-.096-7.213 4.629-15.296 10.5M.392 128c0 7.425.157 10.463.35 6.75s.192-9.787 0-13.5c-.193-3.713-.35-.675-.35 6.75"/><path fill="#1976D2" fill-opacity=".238" fill-rule="evenodd" d="M113.001 1.057C57.224 8.034 13.231 49.283 2.336 104.818 1.209 110.562.632 118.407.632 128c0 35.488 12.212 64.97 37.305 90.063 19.068 19.067 40.35 30.396 66.881 35.601 11.713 2.298 34.651 2.298 46.364 0 36.613-7.183 67.195-28.441 86.329-60.01 9.052-14.935 15.862-34.931 17.171-50.422.339-4.015 1-7.535 1.468-7.824.467-.29.85-4.126.85-8.526s-.385-7.762-.856-7.471-1.131-2.727-1.467-6.706-1.724-11.514-3.082-16.744c-12.411-47.765-51.398-84.259-99.834-93.447-10.393-1.971-29.042-2.672-38.76-1.457M162.5 40.198c-1.1.625-17.438 12.335-36.308 26.023-18.869 13.687-34.865 25.1-35.547 25.362-.841.322-2.987-4.906-6.667-16.244-5.894-18.157-7.978-21.66-13.954-23.45-3.256-.976-4.402-.866-7.663.732C58.219 54.65 54 60.054 54 63.328c0 1.118 6.3 21.477 14 45.242 7.7 23.766 14 43.71 14 44.32 0 .77-5.227 1.11-17.05 1.11-18.864 0-21.706.694-24.433 5.967-.834 1.614-1.517 4.763-1.517 6.998 0 3.233.7 4.828 3.422 7.8l3.423 3.735 46.077.279c25.343.154 46.078.532 46.078.842s-2.52 8.227-5.6 17.595c-5.99 18.219-6.515 21.727-3.983 26.623 4.273 8.264 17.613 7.932 21.899-.545.777-1.537 7.379-21.244 14.672-43.794 7.292-22.55 13.644-42.017 14.114-43.26.823-2.171 1.294-1.936 12.127 6.071C210.806 156.78 212.826 158 217.208 158c8.051 0 13.573-6.142 12.528-13.935-.312-2.321-1.392-5.141-2.401-6.267s-18.882-14.441-39.718-29.589c-34.96-25.416-37.738-27.65-36-28.957 1.036-.778 7.211-5.26 13.724-9.959 6.512-4.698 12.724-9.949 13.804-11.668 4.867-7.742-1.228-18.66-10.38-18.595-2.346.017-5.165.542-6.265 1.168m-49.494 66.929c-7.422 5.478-13.818 10.285-14.214 10.681-.395.395 1.852 8.588 4.995 18.205L109.5 153.5h37l5.241-16c2.882-8.8 5.484-16.736 5.781-17.635.4-1.212-3.238-4.389-14.027-12.25-8.013-5.838-15.114-10.578-15.782-10.532s-7.285 4.565-14.707 10.044M.349 128c0 4.675.173 6.588.383 4.25s.211-6.163 0-8.5c-.21-2.338-.383-.425-.383 4.25"/><path fill="#1976D2" fill-opacity=".382" fill-rule="evenodd" d="M110.5 1.63c-1.65.248-7.725 1.609-13.5 3.025C48.14 16.639 11.252 56.472 2.491 106.71c-1.912 10.966-1.912 31.614 0 42.58 6.401 36.704 28.125 68.539 60.102 88.078 8.958 5.473 22.489 11.027 34.407 14.121 14.013 3.639 37.608 4.582 52 2.078 53.952-9.385 95.125-50.468 104.509-104.277 1.912-10.966 1.912-31.614 0-42.58-6.401-36.704-28.125-68.539-60.102-88.078C184.465 13.169 170.933 7.611 159 4.5c-9.156-2.386-12.741-2.774-28-3.028-9.625-.16-18.85-.089-20.5.158m52.461 38.135c-1.903.97-18.914 13.008-37.8 26.75-18.887 13.742-34.637 24.91-35 24.819-.364-.091-3.141-7.791-6.173-17.111s-6.182-17.752-7-18.739c-1.906-2.297-7.133-4.485-10.706-4.48C60.162 51.012 54 57.423 54 63.782c0 2.134 23.898 77.971 27.66 87.774.469 1.222-1.931 1.444-15.585 1.444-17.67 0-21.178.773-24.881 5.48-4.523 5.75-3.37 14.392 2.427 18.192 2.568 1.683 6.403 1.868 48.456 2.328l45.667.5-5.955 18.402c-6.526 20.167-6.719 22.651-2.185 28.039 5.442 6.468 17.064 5.505 20.771-1.721.768-1.496 7.57-21.845 15.116-45.22s14.032-42.837 14.413-43.249 7.805 4.414 16.497 10.724c17.377 12.615 20.305 13.828 26.241 10.878 7.156-3.556 9.682-10.977 6.09-17.889-1.032-1.986-14.093-12.037-39.586-30.464-20.926-15.125-38.069-27.813-38.096-28.195-.028-.383 6.18-5.226 13.795-10.763s14.365-11.207 15-12.601c3.01-6.606-.081-15.388-6.335-18.001-4.483-1.873-6.35-1.816-10.549.325m-50.046 67.917-14.584 10.584 5.584 17.35 5.585 17.349h37l5.585-17.351 5.585-17.351-14.763-10.631c-8.12-5.848-14.908-10.61-15.085-10.583s-6.885 4.812-14.907 10.633"/></svg>