<svg xmlns="http://www.w3.org/2000/svg" width="256" height="256"><path fill="#1976D2" fill-opacity=".016" fill-rule="evenodd" d="M0 128.004v128.004l128.25-.254 128.25-.254.254-127.75L257.008 0H0zm.485.496c0 70.4.119 99.053.265 63.672s.146-92.98 0-128S.485 58.1.485 128.5"/><path fill="#1976D2" fill-opacity=".171" fill-rule="evenodd" d="M109.655 22.527c-15.564 2.951-32.874 10.325-44.819 19.094-4.582 3.363-4.823 3.753-3.547 5.744.752 1.174 9.608 16.45 19.678 33.947 10.402 18.072 18.686 31.435 19.181 30.94 1.28-1.28 50.852-87.285 50.852-88.226 0-2.48-30.366-3.581-41.345-1.499m36.595 38.909C135.662 79.813 127 95.109 127 95.425s23.205.575 51.567.575h51.568l-.677-2.25c-1.59-5.281-8.683-19.275-13.14-25.923-9.784-14.596-27.4-29.455-43.657-36.827-3.639-1.65-6.739-2.995-6.889-2.989s-8.934 15.047-19.522 33.425M46.209 59.415c-9.423 10.732-17.859 27.048-21.913 42.379-2.146 8.121-2.584 12.074-2.681 24.206-.063 7.975.25 16.637.696 19.25l.812 4.75h39.938c26.732 0 39.939-.341 39.939-1.03 0-1.009-51.465-90.695-52.948-92.271-.415-.441-2.144.781-3.843 2.716M153 106.983c0 .694 42.453 75.052 52.721 92.342 1.461 2.46 13.442-14.129 19.423-26.892 6.661-14.213 9.106-25.44 9.241-42.433.063-7.975-.25-16.638-.696-19.25l-.812-4.75h-39.938c-25.508 0-39.939.355-39.939.983m1.697 38.16C150.349 152.028 105 231.294 105 232.011c0 1.47 11.01 2.493 25.5 2.37 11.67-.099 15.66-.556 23.977-2.75 11.157-2.942 27.058-10.325 35.806-16.624l5.783-4.164-1.93-3.172c-1.061-1.744-9.684-16.671-19.162-33.171s-17.583-30.386-18.011-30.857c-.427-.471-1.447.204-2.266 1.5M26.542 162.25c1.59 5.281 8.683 19.275 13.14 25.923 9.816 14.643 27.399 29.455 43.787 36.885 3.711 1.683 6.868 2.921 7.017 2.751.812-.93 38.514-66.736 38.514-67.225 0-.321-23.205-.584-51.567-.584H25.865z"/><path fill="#1976D2" fill-opacity=".26" fill-rule="evenodd" d="M115.847 22.039c-3.659.427-10.409 1.73-15 2.895-9.573 2.43-30.473 12.441-36.234 17.356l-3.887 3.317 19.387 33.608c10.663 18.485 19.54 33.458 19.727 33.274.186-.184 11.725-20.057 25.641-44.162 16.631-28.807 24.905-44.056 24.144-44.496-1.456-.841-19.423-2.876-23.836-2.7-1.809.073-6.283.481-9.942.908m32.11 37.115c-9.601 16.585-18.255 31.66-19.231 33.5L126.952 96h103.019l-2.067-5.25c-10.142-25.755-28.409-45.926-52.629-58.114-3.974-2-7.818-3.636-8.543-3.636s-9.174 13.569-18.775 30.154M45.855 60.185c-18.053 22.307-26.866 51.028-23.932 77.997.61 5.6 1.256 10.331 1.438 10.512s18.154.211 39.941.068l39.611-.262-26.013-45C62.592 78.75 50.54 57.908 50.117 57.185c-.555-.949-1.742-.113-4.262 3m110.337 52.617c1.819 3.191 13.883 24.144 26.808 46.562l23.5 40.759 2.836-3.311c9.075-10.599 18.104-27.854 21.616-41.312 3.932-15.066 4.616-27.725 2.393-44.25l-.572-4.25h-79.889zm-25.442 74.434c-17.361 30.069-25.172 44.484-24.356 44.95.659.377 5.947 1.197 11.75 1.822 12.086 1.301 24.377.308 37.356-3.019 9.308-2.385 30.25-12.47 35.891-17.283l3.891-3.32-19.279-33.443c-10.603-18.394-19.372-33.562-19.488-33.707s-11.709 19.655-25.765 44M28.096 165.25c10.142 25.755 28.409 45.926 52.629 58.114 3.974 2 7.818 3.636 8.543 3.636 1.039 0 29.779-48.136 38.006-63.654l1.774-3.346H26.029z"/><path fill="#1976D2" fill-opacity=".142" fill-rule="evenodd" d="M106.195 24.096c-12.613 2.648-25.04 7.796-36.128 14.967l-9.241 5.976 1.883 3.231a23530 23530 0 0 1 19.307 33.46c9.583 16.627 17.723 29.902 18.089 29.5 1.581-1.734 50.031-86.427 49.657-86.801-.228-.228-2.804-.868-5.725-1.422-8.64-1.639-27.426-1.098-37.842 1.089m59.114 6.145c-.445.683-9.153 15.645-19.351 33.25L127.417 95.5l50.449.259c27.747.143 50.653.056 50.902-.194.888-.887-5.009-14.305-9.6-21.842-10.639-17.468-24.753-30.722-42.333-39.756-5.315-2.732-9.901-4.967-10.19-4.967-.29 0-.891.559-1.336 1.241M46.26 60.357c-8.535 9.72-17.683 27.725-21.412 42.143-1.963 7.586-2.33 11.513-2.338 25-.006 8.8.336 17.238.759 18.75l.769 2.75h39.088c34.292 0 39.018-.184 38.514-1.496-.669-1.743-50.638-88.613-51.658-89.805-.376-.441-2.051.755-3.722 2.658M154 107.647c0 .356 11.811 21.106 26.247 46.111l26.248 45.463 4.072-4.629c9.506-10.802 18.013-28.885 21.463-45.617 1.804-8.75 2.084-12.78 1.7-24.475-.253-7.7-.793-14.787-1.202-15.75-.689-1.624-3.544-1.75-39.635-1.75-21.391 0-38.893.291-38.893.647m1.723 37.036c-18.675 31.952-49.79 86.583-49.487 86.887 1.2 1.199 12.337 2.43 21.993 2.43 20.667 0 40.277-5.793 57.657-17.033 7.772-5.026 9.05-6.219 8.252-7.707-1.651-3.083-37.307-64.747-37.629-65.077-.17-.174-.523.051-.786.5M27 160.862c0 2.126 6.109 15.359 10.103 21.886 10.475 17.115 24.676 30.351 42.26 39.387 8.186 4.207 10.073 4.839 11.106 3.717.684-.744 7.449-12.152 15.034-25.352s15.967-27.713 18.626-32.25l4.835-8.25H77.982c-28.04 0-50.982.388-50.982.862"/></svg>